{"title":"Todd.and.the.Book.of.Pure.Evil.S02E09.WEBRip.XviD-DEiMOS","uid":6970866,"size":183520334,"categoryP":"video","categoryS":"tv_shows","magnet":"?xt=urn:btih:89dda392fb4f95fa9fe2188677b3828a1738230f&amp;dn=Todd.and.the.Book.of.Pure.Evil.S02E09.WEBRip.XviD-DEiMOS&amp;tr=udp%3A%2F%2Ftracker.openbittorrent.com%3A80&amp;tr=udp%3A%2F%2Fopen.demonii.com%3A1337&amp;tr=udp%3A%2F%2Ftracker.coppersurfer.tk%3A6969&amp;tr=udp%3A%2F%2Fexodus.desync.com%3A6969","seeders":1,"leechers":1,"uploader":"TvTeam","files":4,"time":1327087065,"description":".  TD Sign UP is open until 1st of January. so you better hurry up ;) ENJOYYYYYYYYYYYYYYYYYYYYYYYYYYYYYYYYYYYYYYYYYYYY!!!!\n  &lt;a href=&quot;\nhttp://www.torrentday.com&quot; rel=&quot;nofollow&quot; target=&quot;_NEW&quot;&gt;\nhttp://www.torrentday.com&lt;/a&gt;\n\n\nTo Avoid Fakes, ALWAYS Check That The Torrent Was Added By: TvTeam.\n\n\n               www . TorrentDay . Com \n(((((((((((((= Enjoy No RAR releases =))))))))))))))))))))\n\n...................................NFO:....................................\n\n.\n                          (                *        )   (               \n                          )\\ )           (  `    ( /(   )\\ )            \n                        (()/(   (   (   )\\))(   )\\()) (()/(            \n                          /(_))  )\\  )\\ ((_)()\\ ((_)\\   /(_))           \n                        (_))_  ((_)((_)(_()((_)  ((_) (_))             \n                          |   \\ | __|(_)|  \\/  | / _ \\ / __|            \n                          | |) || _| | || |\\/| || (_) |\\__ \\            \n                          |___/ |___||_||_|  |_| \\___/ |___/                          \n        \n                              Proudly presents\n   \n          Todd.And.The.Book.Of.Pure.Evil.S02E09.WEBRip.XviD-DEiMOS        \n                                                                          \n      Release Date .....: 19/Jan/2012                                     \n      DVD RLS Date .....: ??/???/20??                                     \n      Season Number ....: 2                                               \n      Episode Number ...: 9                                               \n      Episode Title ....: Deathday Cake                                   \n      Runtime ..........: 22:21                                           \n      Language .........: English                                         \n      URL ..............: http://www.tvrage.com/shows/id-26726            \n      File Size ........: 175 MB                                          \n                                                                          \n      Summary   \n                                                                          \n      Jenny plays peacemaker as Todd and Hannah compete to throw Curtis   \n      the ultimate birthday bash, but a killer cake hopes to celebrate    \n      Curtis' deathday!                                                   \n                                                                          \n     Tech Info  \n                                                                          \n      Video                                                               \n      ID                               : 0                                \n      Format                           : MPEG-4 Visual                    \n      Format profile                   : Advanced Simple@L5               \n      Format settings, BVOP            : No                               \n      Format settings, QPel            : No                               \n      Format settings, GMC             : No warppoints                    \n      Format settings, Matrix          : Default (H.263)                  \n      Codec ID                         : XVID                             \n      Codec ID/Hint                    : XviD                             \n      Duration                         : 22mn 21s                         \n      Bit rate                         : 975 Kbps                         \n      Width                            : 640 pixels                       \n      Height                           : 352 pixels                       \n      Display aspect ratio             : 16:9                             \n      Frame rate                       : 29.970 fps                       \n      Color space                      : YUV                              \n      Chroma subsampling               : 4:2:0                            \n      Bit depth                        : 8 bits                           \n      Scan type                        : Progressive                      \n      Compression mode                 : Lossy                            \n      Bits/(Pixel*Frame)               : 0.144                            \n      Stream size                      : 156 MiB (89%)                    \n      Writing library                  : XviD 1.2.1 (UTC 2008-12-04)      \n                                                                          \n      Audio                                                               \n      ID                               : 1                                \n      Format                           : MPEG Audio                       \n      Format version                   : Version 1                        \n      Format profile                   : Layer 3                          \n      Mode                             : Joint stereo                     \n      Mode extension                   : MS Stereo                        \n      Codec ID                         : 55                               \n      Codec ID/Hint                    : MP3                              \n      Duration                         : 22mn 21s                         \n      Bit rate mode                    : Variable                         \n      Bit rate                         : 106 Kbps                         \n      Nominal bit rate                 : 128 Kbps                         \n      Channel(s)                       : 2 channels                       \n      Sampling rate                    : 44.1 KHz                         \n      Compression mode                 : Lossy                            \n      Stream size                      : 17.0 MiB (10%)                   \n      Alignment                        : Aligned on interleaves           \n      Interleave, duration             : 26 ms (0.78 video frame)         \n      Interleave, preload duration     : 467 ms                           \n      Writing library                  : LAME3.98r                        \n                                                                          \n     Group Info  \n                                                                          \n      Our mission is to provide the scene with decent quality rips of old \n      TV classics.                                                        \n                                                                          \n      Greets fly out to GERUDO, HILSWALTB, and everyone that helped us;   \n      you know who you guys are!                                          \n                                                                          \n      Looking for decent affil sites (no OVH) and rippers/cappers.        \n                                                                          \n      Ask around for us.","torrent":{"xt":"urn:btih:89dda392fb4f95fa9fe2188677b3828a1738230f","amp;dn":"Todd.and.the.Book.of.Pure.Evil.S02E09.WEBRip.XviD-DEiMOS","amp;tr":["udp%3A%2F%2Ftracker.openbittorrent.com%3A80","udp%3A%2F%2Fopen.demonii.com%3A1337","udp%3A%2F%2Ftracker.coppersurfer.tk%3A6969","udp%3A%2F%2Fexodus.desync.com%3A6969"],"infoHash":"89dda392fb4f95fa9fe2188677b3828a1738230f","infoHashBuffer":{"type":"Buffer","data":[137,221,163,146,251,79,149,250,159,226,24,134,119,179,130,138,23,56,35,15]},"announce":[],"urlList":[]}}